<svg width="90" height="101" viewBox="0 0 90 101" fill="none" xmlns="http://www.w3.org/2000/svg">
<path d="M89.4259 0.712165C89.0096 0.258571 88.4245 0 87.8088 0H2.19127C1.57552 0 0.990451 0.258571 0.574109 0.712165C0.157767 1.16576 -0.0460216 1.77493 0.00876025 2.3863L7.72205 88.7817C7.80313 89.6845 8.43202 90.4449 9.30415 90.6947L44.3865 100.715C44.5815 100.77 44.7853 100.799 44.9869 100.799C45.1885 100.799 45.3923 100.77 45.5873 100.715L80.7003 90.6947C81.5724 90.4449 82.2013 89.6845 82.2824 88.7817L89.9913 2.3863C90.0461 1.77493 89.8401 1.16576 89.4259 0.712165ZM16.5134 59.1732L31.8524 63.4287V19.7215H40.6175V76.6947L16.5134 70.0091V59.1732ZM73.6049 43.8255L71.2953 70.6686L49.3826 76.6947V66.6126L64.1737 62.5478L64.7215 54.3305L49.3826 56.9732V19.7215H75.6779L74.9219 28.4866H58.1477V46.0168L73.6049 43.8255Z" fill="#A1D979"/>
</svg>
