<svg width="100" height="100" viewBox="0 0 100 100" fill="none" xmlns="http://www.w3.org/2000/svg">
<path d="M34.6992 14.9999C34.3979 14.9971 34.1015 15.0093 33.8105 15.0351C32.6467 15.1383 31.5683 15.4717 30.5938 16.0409C28.1129 17.4894 26.7007 20.3223 26.2363 23.998C25.7865 27.5584 26.2414 31.9762 27.4512 36.8749C22.6002 38.256 18.5456 40.0567 15.6895 42.2245C12.7405 44.4628 11 47.1112 11 49.9999C11 52.8886 12.7405 55.5369 15.6895 57.7753C18.5456 59.9432 22.6002 61.7453 27.4512 63.1269C26.2414 68.0251 25.7865 72.4413 26.2363 76.0019C26.7007 79.6777 28.1129 82.5104 30.5938 83.9589C31.7842 84.6537 33.1348 85.0049 34.6016 85.0038C35.5344 85.0038 36.5149 84.8634 37.5371 84.5898C41.3916 83.557 45.6833 80.5936 50 76.3593C54.3167 80.5936 58.6084 83.557 62.4629 84.5898C63.4851 84.8634 64.4656 85.0038 65.3984 85.0038C66.8638 85.0038 68.2157 84.6544 69.4062 83.9589C71.8872 82.5104 73.2974 79.6777 73.7617 76.0019C74.2114 72.4413 73.7581 68.0251 72.5488 63.1269C77.3998 61.7453 81.4544 59.9432 84.3105 57.7753C87.2595 55.5369 89 52.8886 89 49.9999C89 47.1112 87.2595 44.4628 84.3105 42.2245C81.4544 40.0567 77.3998 38.256 72.5488 36.8749C73.7586 31.9767 74.2135 27.5605 73.7637 23.9999C73.2993 20.3241 71.8871 17.4895 69.4062 16.0409C67.4571 14.9025 65.09 14.7072 62.4629 15.4101C58.6082 16.4419 54.3166 19.4081 50 23.6425C45.6833 19.4082 41.3916 16.4428 37.5371 15.4101C36.5519 15.1461 35.6031 15.0084 34.6992 14.9999ZM34.6953 15.996C35.5021 16.0055 36.3621 16.1316 37.2773 16.3769C40.9526 17.3616 45.2835 20.2943 49.6465 24.6464C49.7403 24.7401 49.8674 24.7928 50 24.7928C50.1326 24.7928 50.2597 24.7401 50.3535 24.6464C54.7165 20.2943 59.0476 17.3606 62.7227 16.3769C65.1636 15.7238 67.2115 15.9167 68.9023 16.9042C71.0355 18.1497 72.3304 20.6337 72.7715 24.1249C73.2126 27.6161 72.7782 32.0724 71.498 37.078C71.4657 37.2049 71.4845 37.3394 71.5502 37.4526C71.6159 37.5658 71.7234 37.6487 71.8496 37.6835C76.829 39.0562 80.906 40.8969 83.7051 43.0214C86.5041 45.1459 88 47.5126 88 49.9999C88 52.4872 86.5041 54.8538 83.7051 56.9784C80.906 59.103 76.829 60.9431 71.8496 62.3163C71.7234 62.3511 71.6159 62.4341 71.5502 62.5473C71.4845 62.6605 71.4657 62.7949 71.498 62.9218C72.7777 67.9274 73.2125 72.3857 72.7715 75.8769C72.3305 79.368 71.0354 81.8502 68.9023 83.0956C67.8693 83.6995 66.7084 84.0038 65.3984 84.0038C64.5653 84.0038 63.6724 83.8773 62.7227 83.623V83.6249C59.0474 82.6402 54.7165 79.7055 50.3535 75.3534C50.2597 75.2597 50.1326 75.207 50 75.207C49.8674 75.207 49.7403 75.2597 49.6465 75.3534C45.2835 79.7055 40.9526 82.6402 37.2773 83.6249V83.623C36.3276 83.8773 35.4347 84.0038 34.6016 84.0038C33.2923 84.0048 32.1312 83.6988 31.0977 83.0956C28.9645 81.8501 27.6696 79.368 27.2285 75.8769C26.7874 72.3857 27.2218 67.9293 28.502 62.9237C28.5348 62.7966 28.5164 62.6616 28.4506 62.548C28.3849 62.4343 28.277 62.3511 28.1504 62.3163C23.171 60.9431 19.094 59.103 16.2949 56.9784C13.4959 54.8538 12 52.4872 12 49.9999C12 47.5126 13.4959 45.1459 16.2949 43.0214C19.094 40.8969 23.171 39.0562 28.1504 37.6835C28.2766 37.6487 28.3841 37.5658 28.4498 37.4526C28.5155 37.3394 28.5343 37.2049 28.502 37.078C27.2218 32.0719 26.7874 27.616 27.2285 24.1249C27.6696 20.6339 28.9645 18.1497 31.0977 16.9042C31.9431 16.4104 32.8776 16.1155 33.9062 16.0253C34.1634 16.0027 34.4264 15.9928 34.6953 15.996ZM34.6152 17.9999C33.6815 17.9999 32.8318 18.2065 32.1055 18.6308C30.3426 19.6599 29.3904 21.9457 29.127 25.0312C28.8635 28.1166 29.2916 32.0629 30.4531 36.5976C30.4855 36.7234 30.5656 36.8317 30.6764 36.8995C30.7872 36.9673 30.9201 36.9893 31.0469 36.9608C34.1952 36.2522 37.638 35.7188 41.2969 35.3886C41.3696 35.3819 41.44 35.3594 41.5031 35.3226C41.5662 35.2859 41.6205 35.2357 41.6621 35.1757C43.8096 32.0803 46.0428 29.2624 48.2891 26.7987C48.376 26.7037 48.423 26.5787 48.42 26.4499C48.4171 26.3211 48.3646 26.1984 48.2734 26.1073C44.2204 22.0452 40.2417 19.2415 36.7598 18.3085C36.0018 18.1065 35.2861 17.9999 34.6152 17.9999ZM65.3848 17.9999C64.713 17.9999 63.9988 18.1066 63.2402 18.3085C59.7582 19.2415 55.7796 22.0472 51.7266 26.1093C51.636 26.2002 51.5838 26.3225 51.5809 26.4509C51.578 26.5792 51.6245 26.7038 51.7109 26.7987C53.9572 29.2624 56.1904 32.0794 58.3379 35.1757C58.3795 35.2357 58.4338 35.2859 58.4969 35.3226C58.56 35.3594 58.6304 35.3819 58.7031 35.3886C62.362 35.7188 65.8037 36.2522 68.9531 36.9608C69.0799 36.9893 69.2128 36.9673 69.3236 36.8995C69.4344 36.8317 69.5145 36.7234 69.5469 36.5976C70.7084 32.0629 71.1365 28.1167 70.873 25.0312C70.6096 21.9456 69.6573 19.6604 67.8945 18.6308C67.1685 18.206 66.3176 17.9999 65.3848 17.9999ZM34.6152 18.9999C35.1804 18.9999 35.8119 19.0894 36.502 19.2733C39.5866 20.0999 43.3671 22.7252 47.2305 26.5292C45.1092 28.889 43.0073 31.5247 40.9824 34.4276C37.5538 34.7461 34.3336 35.2542 31.3379 35.9062C30.2879 31.6512 29.8826 27.9311 30.123 25.1151C30.3724 22.1946 31.2802 20.27 32.6094 19.4941C33.167 19.1683 33.827 18.9999 34.6152 18.9999ZM65.3848 18.9999C66.1719 18.9999 66.8327 19.1688 67.3887 19.4941C67.3893 19.4941 67.39 19.4941 67.3906 19.4941C68.7199 20.2705 69.6276 22.1964 69.877 25.1171C70.1174 27.9336 69.7125 31.6524 68.6621 35.9081C65.6657 35.2561 62.4462 34.7461 59.0176 34.4276C56.9926 31.5238 54.8907 28.8889 52.7695 26.5292C56.6329 22.7251 60.4135 20.0998 63.498 19.2733C64.1894 19.0893 64.8185 18.9999 65.3848 18.9999ZM49.9668 28.1444C49.8371 28.1531 49.7159 28.212 49.6289 28.3085C47.9808 30.1309 46.3368 32.1474 44.7324 34.3261C44.6766 34.4023 44.6435 34.4927 44.637 34.5869C44.6305 34.6812 44.6507 34.7753 44.6955 34.8585C44.7403 34.9417 44.8076 35.0105 44.8899 35.0569C44.9721 35.1034 45.0658 35.1256 45.1602 35.121C46.7452 35.0443 48.3571 34.9999 50 34.9999C51.6429 34.9999 53.255 35.0453 54.8398 35.123C54.9345 35.1278 55.0286 35.1057 55.1112 35.0592C55.1938 35.0126 55.2614 34.9436 55.3062 34.8601C55.3511 34.7765 55.3712 34.682 55.3644 34.5875C55.3575 34.4929 55.324 34.4023 55.2676 34.3261C53.6632 32.1463 52.0192 30.1309 50.3711 28.3085C50.3205 28.2524 50.2578 28.2085 50.1878 28.1801C50.1178 28.1516 50.0422 28.1395 49.9668 28.1444ZM50 29.4355C51.2735 30.8673 52.5397 32.4419 53.791 34.0956C52.5406 34.0469 51.2881 33.9999 50 33.9999C48.7119 33.9999 47.4592 34.0473 46.209 34.0956C47.4606 32.4421 48.7262 30.8676 50 29.4355ZM50 36.9999C47.5413 36.9999 45.1735 37.0937 42.9023 37.2636C42.8271 37.2692 42.7541 37.2918 42.6888 37.3297C42.6235 37.3676 42.5676 37.4198 42.5254 37.4823C41.2452 39.3855 39.9991 41.3763 38.8125 43.455C37.5873 45.6028 36.4872 47.7161 35.502 49.7851C35.4697 49.8524 35.453 49.9262 35.453 50.0009C35.453 50.0756 35.4697 50.1493 35.502 50.2167C36.4872 52.2857 37.5873 54.3999 38.8125 56.5468C39.9982 58.6246 41.2444 60.6145 42.5234 62.5175C42.5659 62.5803 42.6221 62.6326 42.6877 62.6705C42.7533 62.7084 42.8267 62.7309 42.9023 62.7362C45.1735 62.9061 47.5413 62.9999 50 62.9999C52.4587 62.9999 54.8274 62.9061 57.0996 62.7362C57.1749 62.7306 57.2479 62.708 57.3132 62.6701C57.3785 62.6322 57.4343 62.58 57.4766 62.5175C58.7556 60.6145 60.0037 58.6246 61.1895 56.5468C62.4147 54.3999 63.5148 52.2857 64.5 50.2167C64.5322 50.1493 64.549 50.0756 64.549 50.0009C64.549 49.9262 64.5322 49.8524 64.5 49.7851C63.5147 47.715 62.4147 45.6019 61.1895 43.455C61.1895 43.4543 61.1895 43.4537 61.1895 43.453C60.0028 41.3754 58.7556 39.3854 57.4766 37.4823C57.4341 37.4195 57.3779 37.3672 57.3123 37.3293C57.2467 37.2914 57.1733 37.2689 57.0977 37.2636C54.8255 37.0937 52.4587 36.9999 50 36.9999ZM39.1328 37.6288C39.1067 37.6281 39.0806 37.6294 39.0547 37.6327C36.4155 37.9477 33.9424 38.3739 31.6504 38.8847C31.5831 38.8997 31.5196 38.9285 31.464 38.9692C31.4083 39.0099 31.3617 39.0617 31.327 39.1213C31.2924 39.181 31.2704 39.2471 31.2625 39.3156C31.2546 39.3841 31.261 39.4535 31.2812 39.5194C31.9814 41.7892 32.8472 44.1743 33.8945 46.6503C33.9315 46.7381 33.9928 46.8135 34.0712 46.8677C34.1496 46.9218 34.2419 46.9524 34.3371 46.9559C34.4323 46.9594 34.5265 46.9356 34.6087 46.8874C34.6908 46.8391 34.7575 46.7684 34.8008 46.6835C35.5137 45.2836 36.2668 43.8748 37.0742 42.4628C37.0749 42.4628 37.0755 42.4628 37.0762 42.4628C37.8724 41.0682 38.6954 39.7173 39.5352 38.3964C39.5822 38.3222 39.6089 38.2369 39.6126 38.1491C39.6162 38.0613 39.5966 37.9741 39.5558 37.8963C39.515 37.8185 39.4545 37.7528 39.3802 37.7058C39.3059 37.6589 39.2206 37.6323 39.1328 37.6288ZM60.8945 37.6288C60.8782 37.6287 60.8619 37.6293 60.8457 37.6308C60.7598 37.6378 60.6771 37.6669 60.6057 37.7153C60.5343 37.7636 60.4767 37.8297 60.4383 37.9069C60.4 37.9842 60.3823 38.07 60.3869 38.1561C60.3916 38.2422 60.4184 38.3257 60.4648 38.3983C61.3039 39.7197 62.1298 41.0676 62.9258 42.4628C62.9258 42.4635 62.9258 42.4641 62.9258 42.4648C63.7322 43.8758 64.4853 45.2825 65.1992 46.6835C65.2424 46.7684 65.3089 46.8393 65.3909 46.8877C65.4729 46.9361 65.5671 46.9601 65.6623 46.9568C65.7575 46.9536 65.8498 46.9232 65.9283 46.8692C66.0068 46.8152 66.0683 46.74 66.1055 46.6523C67.1528 44.1753 68.0176 41.7909 68.7188 39.5214C68.7393 39.4555 68.746 39.386 68.7384 39.3174C68.7308 39.2488 68.7091 39.1824 68.6746 39.1226C68.6401 39.0628 68.5936 39.0108 68.538 38.9698C68.4824 38.9289 68.4189 38.8999 68.3516 38.8847C66.0587 38.3739 63.5845 37.9477 60.9453 37.6327C60.9285 37.6306 60.9115 37.6293 60.8945 37.6288ZM50 37.9999C52.3481 37.9999 54.6019 38.0928 56.7773 38.2499C57.9971 40.0739 59.1885 41.9676 60.3203 43.9491C61.4911 46.0007 62.5338 48.0198 63.4824 49.9999C62.5336 51.9796 61.4914 53.9986 60.3203 56.0507C59.1896 58.0321 57.9972 59.926 56.7773 61.7499C54.6024 61.9069 52.3474 61.9999 50 61.9999C47.6519 61.9999 45.3973 61.907 43.2227 61.7499C42.0028 59.926 40.8104 58.0321 39.6797 56.0507C38.5086 53.9986 37.4664 51.9796 36.5176 49.9999C37.4662 48.0206 38.5088 46.0017 39.6797 43.9491C40.8115 41.9666 42.0041 40.0737 43.2246 38.2499C45.3986 38.0929 47.6526 37.9999 50 37.9999ZM38.1211 38.8026C37.4741 39.8406 36.828 40.879 36.207 41.9667C35.5794 43.0643 35.0095 44.1533 34.4414 45.2421C33.6762 43.359 32.9904 41.5184 32.4336 39.7636C34.2132 39.382 36.1295 39.0689 38.1211 38.8026ZM61.8789 38.8046C63.8703 39.0707 65.7843 39.384 67.5645 39.7655C67.0071 41.5199 66.3215 43.3592 65.5566 45.2421C64.9885 44.1538 64.4213 43.0646 63.7949 41.9687C63.174 40.8803 62.5254 39.8419 61.8789 38.8046ZM28.8223 39.5995C28.782 39.6006 28.742 39.6065 28.7031 39.6171C24.1967 40.8584 20.5669 42.4469 18.0312 44.2128C15.4956 45.9787 14 47.9516 14 49.9999C14 52.0482 15.4956 54.0211 18.0312 55.787C20.5669 57.553 24.1967 59.1414 28.7031 60.3827C28.8284 60.4168 28.9621 60.4008 29.0758 60.3381C29.1896 60.2754 29.2744 60.1709 29.3125 60.0468C30.2744 56.911 31.5392 53.6054 33.0957 50.2089C33.1259 50.1433 33.1415 50.0721 33.1415 49.9999C33.1415 49.9278 33.1259 49.8565 33.0957 49.7909C31.5392 46.3945 30.2744 43.0889 29.3125 39.953C29.2806 39.8487 29.2153 39.7577 29.1268 39.6938C29.0383 39.63 28.9314 39.5969 28.8223 39.5995ZM71.1484 39.5995C71.0444 39.6031 70.944 39.6391 70.8614 39.7025C70.7787 39.7659 70.718 39.8535 70.6875 39.953C69.7256 43.0879 68.4608 46.3945 66.9043 49.7909C66.8741 49.8565 66.8585 49.9278 66.8585 49.9999C66.8585 50.0721 66.8741 50.1433 66.9043 50.2089C68.4608 53.6054 69.7256 56.911 70.6875 60.0468C70.7256 60.1709 70.8104 60.2754 70.9242 60.3381C71.0379 60.4008 71.1716 60.4168 71.2969 60.3827C75.8033 59.1414 79.4331 57.553 81.9688 55.787C84.5044 54.0211 86 52.0482 86 49.9999C86 47.9516 84.5044 45.9787 81.9688 44.2128C79.4331 42.4469 75.8033 40.8584 71.2969 39.6171C71.2486 39.6038 71.1985 39.5979 71.1484 39.5995ZM28.543 40.7284C29.4787 43.7045 30.6526 46.8081 32.1055 49.9999C30.6526 53.1917 29.4787 56.2954 28.543 59.2714C24.3358 58.072 20.9159 56.5771 18.6035 54.9667C16.2052 53.2964 15 51.5476 15 49.9999C15 48.4522 16.2052 46.7034 18.6035 45.0331C20.9159 43.4227 24.3358 41.9278 28.543 40.7284ZM71.457 40.7284C75.6642 41.9278 79.0841 43.4227 81.3965 45.0331C83.7948 46.7034 85 48.4522 85 49.9999C85 51.5476 83.7948 53.2964 81.3965 54.9667C79.0841 56.5771 75.6642 58.072 71.457 59.2714C70.5213 56.2954 69.3474 53.1917 67.8945 49.9999C69.3474 46.808 70.5213 43.7037 71.457 40.7284ZM50 41.9999C45.5936 41.9999 42 45.5935 42 49.9999C42 54.4063 45.5936 57.9999 50 57.9999C54.4064 57.9999 58 54.4063 58 49.9999C58 45.5935 54.4064 41.9999 50 41.9999ZM50 43.9999C53.3256 43.9999 56 46.6744 56 49.9999C56 53.3255 53.3256 55.9999 50 55.9999C46.6744 55.9999 44 53.3255 44 49.9999C44 46.6744 46.6744 43.9999 50 43.9999ZM34.3555 53.0448C34.2572 53.0447 34.1611 53.0735 34.0791 53.1277C33.9971 53.1819 33.9329 53.2591 33.8945 53.3495C32.8471 55.8246 31.9823 58.21 31.2812 60.4784C31.2607 60.5443 31.254 60.6138 31.2616 60.6824C31.2692 60.7511 31.2909 60.8174 31.3254 60.8772C31.3599 60.937 31.4064 60.989 31.462 61.03C31.5176 61.0709 31.5811 61.0999 31.6484 61.1151C33.9404 61.6259 36.4146 62.0522 39.0527 62.3671C39.1468 62.3783 39.242 62.3625 39.3274 62.3217C39.4129 62.2808 39.4849 62.2165 39.5353 62.1363C39.5856 62.0561 39.6121 61.9633 39.6118 61.8686C39.6114 61.7739 39.5842 61.6813 39.5332 61.6015C38.6943 60.2814 37.8694 58.9326 37.0723 57.537C36.2666 56.1257 35.5136 54.718 34.8008 53.3183C34.759 53.2361 34.6953 53.167 34.6167 53.1188C34.5381 53.0705 34.4477 53.0449 34.3555 53.0448ZM65.6289 53.0448C65.5394 53.0477 65.4522 53.0746 65.3766 53.1227C65.3011 53.1708 65.2398 53.2384 65.1992 53.3183C64.4863 54.7182 63.7322 56.126 62.9258 57.537C62.1297 58.9313 61.3039 60.2802 60.4648 61.6015C60.4139 61.6813 60.3867 61.7739 60.3863 61.8686C60.3859 61.9633 60.4124 62.0561 60.4628 62.1363C60.5131 62.2165 60.5852 62.2808 60.6706 62.3217C60.756 62.3625 60.8513 62.3783 60.9453 62.3671C63.5845 62.0522 66.0577 61.6259 68.3496 61.1151C68.4171 61.1002 68.4808 61.0713 68.5366 61.0305C68.5925 60.9896 68.6392 60.9376 68.6739 60.8778C68.7086 60.8179 68.7305 60.7515 68.7382 60.6828C68.7459 60.6141 68.7393 60.5445 68.7188 60.4784C68.0177 58.2099 67.1528 55.8256 66.1055 53.3495C66.0661 53.2566 65.9995 53.1777 65.9144 53.1233C65.8293 53.0689 65.7298 53.0416 65.6289 53.0448ZM34.4434 54.7597C35.0113 55.8476 35.5796 56.9374 36.2051 58.0331C36.8266 59.1211 37.473 60.1585 38.1191 61.1952C36.1289 60.9291 34.2145 60.6157 32.4355 60.2343C32.9928 58.4805 33.6786 56.6414 34.4434 54.7597ZM65.5566 54.7597C66.3214 56.6418 67.0072 58.4807 67.5645 60.2343C65.7856 60.6157 63.8715 60.9291 61.8809 61.1952C62.5271 60.1584 63.1742 59.1203 63.7949 58.0331C64.4213 56.9372 64.989 55.8475 65.5566 54.7597ZM69.0703 63.0253C69.0302 63.0251 68.9902 63.0297 68.9512 63.039C65.8028 63.7477 62.362 64.2811 58.7031 64.6112C58.6304 64.6179 58.56 64.6404 58.4969 64.6772C58.4338 64.714 58.3795 64.7641 58.3379 64.8241C56.1904 67.9205 53.9572 70.7374 51.7109 73.2011C51.624 73.2961 51.577 73.4211 51.58 73.5499C51.5829 73.6787 51.6354 73.8014 51.7266 73.8925C55.7796 77.9546 59.7583 80.7583 63.2402 81.6913C65.0563 82.1762 66.6459 82.0981 67.8945 81.369C69.6573 80.3394 70.6098 78.0544 70.873 74.9687C71.1363 71.8829 70.707 67.9374 69.5449 63.4023C69.518 63.2961 69.457 63.2018 69.3712 63.1337C69.2855 63.0656 69.1798 63.0275 69.0703 63.0253ZM30.9492 63.0273C30.8363 63.0246 30.7259 63.0602 30.6358 63.1283C30.5457 63.1963 30.4813 63.2929 30.4531 63.4023C29.2921 67.9369 28.8637 71.8831 29.127 74.9687C29.3902 78.0542 30.3427 80.3394 32.1055 81.369C32.1061 81.3697 32.1068 81.3704 32.1074 81.371C33.3558 82.0976 34.9445 82.1752 36.7598 81.6913C40.2417 80.7583 44.2214 77.9536 48.2734 73.8925C48.364 73.8015 48.4162 73.6792 48.4191 73.5509C48.422 73.4225 48.3755 73.298 48.2891 73.203C46.0427 70.7383 43.8096 67.9205 41.6621 64.8241C41.6205 64.7641 41.5662 64.714 41.5031 64.6772C41.44 64.6404 41.3696 64.6179 41.2969 64.6112C37.639 64.2811 34.1952 63.7476 31.0469 63.039C31.0148 63.0319 30.9821 63.0279 30.9492 63.0273ZM68.6602 64.0917C69.711 68.348 70.1173 72.068 69.877 74.8847C69.6277 77.8055 68.7199 79.7294 67.3906 80.5058C66.4333 81.0647 65.15 81.1676 63.498 80.7265C60.4134 79.9 56.6329 77.2746 52.7695 73.4706C54.8908 71.1108 56.9926 68.476 59.0176 65.5722C62.4461 65.2537 65.6646 64.7437 68.6602 64.0917ZM31.3379 64.0937C34.3335 64.7456 37.5528 65.2537 40.9805 65.5722C43.0054 68.4761 45.1073 71.1121 47.2285 73.4726C43.3661 77.2756 39.5865 79.9 36.502 80.7265C34.8512 81.1665 33.567 81.0631 32.6094 80.5058C31.2801 79.7294 30.3723 77.8054 30.123 74.8847C29.8828 72.0685 30.2883 68.3486 31.3379 64.0937ZM45.1094 64.8788C45.0193 64.8836 44.9323 64.9126 44.8574 64.9628C44.7825 65.013 44.7226 65.0825 44.6839 65.1639C44.6453 65.2454 44.6294 65.3358 44.638 65.4255C44.6465 65.5152 44.6791 65.601 44.7324 65.6737C46.3368 67.8535 47.9808 69.8689 49.6289 71.6913C49.6758 71.7432 49.733 71.7847 49.797 71.8131C49.8609 71.8415 49.9301 71.8562 50 71.8562C50.0699 71.8562 50.1391 71.8415 50.203 71.8131C50.267 71.7847 50.3242 71.7432 50.3711 71.6913C52.0192 69.868 53.6632 67.8524 55.2676 65.6737C55.3234 65.5975 55.3565 65.5071 55.363 65.4129C55.3695 65.3186 55.3493 65.2245 55.3045 65.1413C55.2597 65.0582 55.1924 64.9894 55.1101 64.9429C55.0279 64.8964 54.9342 64.8742 54.8398 64.8788C53.2548 64.9555 51.6429 64.9999 50 64.9999C48.3571 64.9999 46.7452 64.9555 45.1602 64.8788C45.1432 64.878 45.1263 64.878 45.1094 64.8788ZM46.209 65.9042C47.4592 65.9524 48.7119 65.9999 50 65.9999C51.2881 65.9999 52.5408 65.9525 53.791 65.9042C52.5394 67.5578 51.2738 69.1315 50 70.5644C48.7262 69.1322 47.4606 67.5583 46.209 65.9042Z" fill="#A1D979" stroke="#A1D979"/>
</svg>
