<svg width="100" height="100" viewBox="0 0 100 100" fill="none" xmlns="http://www.w3.org/2000/svg">
<g clip-path="url(#clip0)">
<path d="M79.3988 9.52381C79.3988 4.26398 75.1348 0 69.875 0H30.1234C24.8636 0 20.5996 4.26398 20.5996 9.52381V90.4762C20.5996 95.736 24.8636 100 30.1234 100H69.875C75.1348 100 79.3988 95.736 79.3988 90.4762V9.52381ZM76.9143 78.0538H23.0841V18.8406H76.9143V78.0538ZM69.9046 97.7226H30.0938C26.2122 97.7226 23.0841 94.4882 23.0841 90.6068V80.5383H76.9143V90.6068C76.9143 94.4882 73.7862 97.7226 69.9046 97.7226ZM76.9143 16.3561H23.0841V9.60021C23.0841 5.71884 26.2122 2.48447 30.0938 2.48447H69.9046C73.7862 2.48447 76.9143 5.71884 76.9143 9.60021V16.3561Z" fill="#A1D979"/>
<path d="M57.0463 7.66016H42.9532C42.267 7.66016 41.7109 8.21626 41.7109 8.90239C41.7109 9.58852 42.267 10.1446 42.9532 10.1446H57.0463C57.7325 10.1446 58.2886 9.58852 58.2886 8.90239C58.2886 8.21626 57.7325 7.66016 57.0463 7.66016Z" fill="#A1D979"/>
<path d="M49.9996 83.5527C46.9186 83.5527 44.4209 86.0505 44.4209 89.1314C44.4209 92.2124 46.9186 94.7101 49.9996 94.7101C53.0805 94.7101 55.5783 92.2124 55.5783 89.1314C55.5747 86.0519 53.0791 83.5563 49.9996 83.5527ZM49.9996 92.2256C48.2907 92.2256 46.9054 90.8403 46.9054 89.1314C46.9054 87.4225 48.2907 86.0372 49.9996 86.0372C51.7085 86.0372 53.0938 87.4225 53.0938 89.1314C53.0919 90.8395 51.7077 92.2238 49.9996 92.2256Z" fill="#A1D979"/>
<path d="M34.6531 51.104L44.4655 58.5238C45.0098 58.9414 45.7898 58.8388 46.2074 58.2944C46.625 57.7501 46.5223 56.9702 45.978 56.5526C45.9734 56.5491 45.9688 56.5456 45.9643 56.5423L37.4622 50.1133L45.9641 43.6851C46.5142 43.2752 46.6279 42.4969 46.2179 41.9468C45.808 41.3967 45.0297 41.2831 44.4796 41.693C44.4749 41.6965 44.4703 41.7 44.4655 41.7035L34.6531 49.1232C34.1059 49.5371 33.9978 50.3162 34.4117 50.8634C34.4807 50.9547 34.562 51.0359 34.6531 51.1048V51.104Z" fill="#A1D979"/>
<path d="M53.7942 58.2816C54.2079 58.8282 54.9863 58.9363 55.5333 58.5233L65.3457 51.1034C65.8929 50.6895 66.001 49.9104 65.5872 49.3632C65.5182 49.2719 65.4368 49.1908 65.3457 49.1218L55.5333 41.7021C54.9857 41.2887 54.2064 41.3974 53.793 41.945C53.3795 42.4926 53.4882 43.2719 54.0358 43.6854L62.5379 50.1144L54.0358 56.5425C53.4892 56.9562 53.3812 57.7346 53.7942 58.2816Z" fill="#A1D979"/>
<path d="M48.1396 62.4672C48.8179 62.5699 49.451 62.103 49.5537 61.4247L52.903 39.2937C53.0059 38.6154 52.5394 37.9821 51.8609 37.879C51.1827 37.7761 50.5493 38.2425 50.4464 38.921L47.0972 61.0529C46.9945 61.7311 47.4611 62.3645 48.1394 62.4672H48.1396Z" fill="#A1D979"/>
<path d="M49.9997 72.9609C62.6233 72.9609 72.8569 62.7273 72.8569 50.1037C72.8569 37.4801 62.6233 27.2466 49.9997 27.2466C37.3761 27.2466 27.1426 37.4801 27.1426 50.1037C27.1564 62.7215 37.3819 72.947 49.9997 72.9609ZM49.9997 29.7311C61.2513 29.7311 70.3724 38.8522 70.3724 50.1037C70.3724 61.3553 61.2513 70.4764 49.9997 70.4764C38.7482 70.4764 29.6271 61.3553 29.6271 50.1037C29.6395 38.8573 38.7533 29.7435 49.9997 29.7311Z" fill="#A1D979"/>
</g>
<defs>
<clipPath id="clip0">
<rect width="100" height="100" fill="white"/>
</clipPath>
</defs>
</svg>
