<svg width="100" height="100" viewBox="0 0 100 100" fill="none" xmlns="http://www.w3.org/2000/svg">
<g clip-path="url(#clip0)">
<path d="M45.8021 11.6055C41.3365 11.6055 36.6228 12.4413 32.1671 14.0248C26.8315 15.9209 16.7435 20.1664 9.12497 27.2918C1.39019 34.5275 -0.517974 41.4883 0.273743 45.5932C1.75896 53.2859 9.15375 58.5522 14.7739 62.4266C10.669 64.94 6.20924 68.4019 4.42337 72.3505C2.73771 76.0745 2.6478 79.9102 4.16108 83.1512C5.29153 85.5705 7.22206 87.3654 9.32462 87.9507C10.7798 88.3556 12.284 88.5614 13.7952 88.5614C19.7642 88.5614 25.6528 85.3039 29.1684 80.0625C29.6956 79.2768 30.1497 78.4594 30.5386 77.6236C30.753 77.8782 30.9756 78.1196 31.2041 78.3361C33.1222 80.154 35.4085 80.1525 36.1601 80.1525C38.4772 80.1525 40.108 79.1483 41.2845 77.9016C42.2667 78.555 43.4222 78.9037 44.6669 78.9037C44.8172 78.9037 44.9727 78.9022 45.121 78.8842C47.6124 78.5795 50.3002 76.1478 50.3002 76.1478C50.4044 76.238 50.5089 76.3219 50.6212 76.4061C51.6795 77.2039 53.011 77.5923 54.6886 77.5923C54.9672 77.5923 55.2553 77.5849 55.5459 77.5649C57.5964 77.4266 59.1423 76.9364 60.1144 76.5275C61.0925 76.1707 62.5084 75.5399 63.9235 74.4996C64.2662 74.2471 64.5936 73.9817 64.8982 73.701C65.5216 74.0799 66.2251 74.3531 66.9887 74.5075C67.3615 74.5836 67.7505 74.621 68.1514 74.621C69.2057 74.621 70.3467 74.3633 71.6355 73.8341C72.6818 73.4734 74.1917 72.8266 75.699 71.7202C79.1906 69.1526 80.8894 66.101 80.7451 62.6576C80.7411 62.5513 80.7335 62.4448 80.7255 62.3366C81.2406 62.2804 81.7735 62.2543 82.3227 62.2543C83.0022 62.2543 83.7189 62.2994 84.4484 62.3835C89.2288 62.9427 90.2564 65.1983 90.2383 65.9459C90.2083 66.1424 89.868 66.4581 89.5493 66.6545C87.527 67.9052 86.6851 69.5292 87.0439 71.4814C87.4267 73.594 89.2013 75.0751 91.358 75.0751C91.7688 75.0751 92.128 75.0234 92.4267 74.9733C94.9902 74.5404 99.8751 71.359 100.1 65.6406C100.232 62.3214 98.8722 58.9252 96.3727 56.3235C93.2319 53.0564 88.6265 51.2579 83.4032 51.2579H83.2818C81.1252 51.2699 79.0306 51.5654 77.0183 52.1387L76.9556 51.6846C76.8334 50.8247 76.787 50.5022 76.8852 49.7546C76.9734 49.0831 77.3836 47.8697 77.582 47.2844C77.8606 46.4666 78.0632 45.876 77.993 45.0021C77.8567 43.2964 76.4393 40.3991 71.9957 40.3671H71.98H71.8704C67.9218 40.3671 65.4822 41.5139 64.6203 43.7768C64.5121 44.0594 64.3846 44.4322 64.2523 44.8612C63.3303 43.8911 61.849 43.1273 59.5781 43.1113H59.5625H59.4489C58.9779 43.1113 58.5292 43.1301 58.1023 43.1622C63.7986 37.8847 67.4294 30.3061 65.5794 23.0443C63.7815 15.989 56.2027 11.6055 45.8021 11.6055ZM45.7982 15.5946C53.7956 15.5946 60.3305 18.5849 61.7195 24.0348C63.7519 32.004 56.8301 41.5355 47.9709 44.963C43.3669 46.7448 39.2257 47.3235 36.0388 47.3235C33.7518 47.3235 31.9546 47.0229 30.8322 46.6541C27.7776 45.6519 25.9842 43.641 25.5473 42.5045C25.3769 42.0595 25.0803 41.3107 25.5473 41.0521C25.6275 41.008 25.6964 40.9777 25.7665 40.9777C25.9509 40.9777 26.1666 41.167 26.7178 41.7764C27.3572 42.4819 29.6897 44.227 34.007 44.227C34.6144 44.227 35.2652 44.1955 35.9527 44.1174C50.5744 42.4778 59.381 31.115 56.599 25.0017C55.5768 22.7568 51.9902 21.1613 46.7769 21.1613C42.0527 21.1613 35.9921 22.4748 29.2976 25.8121C12.1083 34.3766 11.1778 41.4356 11.0314 44.1174C10.6286 51.4934 20.134 55.3767 25.2772 60.8646C25.3453 60.9368 25.4107 61.0078 25.4768 61.0799C26.4409 60.5488 27.4559 59.9908 28.452 59.4436C31.0457 58.0185 33.487 56.6826 34.6295 56.0612C36.4394 53.4315 40.1165 50.5297 42.7682 50.5297C47.0094 50.5297 45.5477 56.621 45.5477 56.621C45.5477 56.621 45.635 56.3373 45.7513 56.3353C45.8435 56.3333 46.1413 55.8616 46.8709 55.8616C47.0893 55.8616 47.3433 55.904 47.646 56.0143C48.9929 56.5073 48.6871 57.4526 48.6951 57.5488C48.7112 57.7352 47.1058 63.1517 46.4363 66.6232C46.1176 68.2788 46.303 69.4849 46.3972 69.4849C46.5295 69.4849 46.7965 69.061 47.047 68.608L47.0431 68.5962C47.0431 68.5962 47.2295 68.2564 47.5442 67.641C47.5843 67.5589 47.6068 67.5079 47.6068 67.5079L47.6108 67.5118C47.9796 66.7863 48.4991 65.7244 49.0984 64.4035C50.2749 61.8099 54.7658 51.8025 55.1466 50.6941C55.5275 49.5857 55.7275 48.439 55.9139 47.9499C56.0983 47.4689 57.6311 47.1043 59.445 47.1043H59.5429C61.3989 47.1183 61.5841 47.9069 61.5981 48.0713C61.6121 48.2356 60.7143 50.4307 60.5098 51.9821C60.3054 53.5334 60.502 54.3121 60.6703 55.615C60.7826 56.4688 61.3153 57.5495 61.9426 58.7741C63.8608 55.6353 67.2414 49.6315 67.5681 47.9499C67.7906 46.8014 68.149 45.6986 68.3354 45.2096C68.5198 44.7285 70.0545 44.3601 71.8665 44.3601H71.9604C73.8165 44.3741 74.0055 45.1666 74.0196 45.3309C74.0336 45.4953 73.1357 47.6904 72.9313 49.2418C72.7268 50.7931 72.9234 51.5679 73.0918 52.8707C73.2361 53.9851 74.1013 55.4889 74.9552 57.1926C77.2903 56.0421 80.0766 55.2669 83.2936 55.2509H83.3954C91.6513 55.2509 96.3068 60.6113 96.1144 65.4918C95.97 69.3442 92.4264 70.9346 91.769 71.0469C91.6087 71.0749 91.4702 71.0938 91.358 71.0938C91.1355 71.0938 91.0087 71.0135 90.9626 70.765C90.9145 70.5064 91.0864 70.3875 91.6476 70.0408C92.2089 69.694 93.8857 68.5435 94.1844 66.451C94.485 64.3584 92.9137 59.3618 84.9104 58.4257C84.0004 58.3195 83.1405 58.2731 82.3227 58.2731C79.7913 58.2731 77.6984 58.7457 75.9887 59.4592C76.4096 60.5476 76.7196 61.6795 76.7677 62.822C76.8719 65.3314 75.1383 67.1852 73.3384 68.5101C72.2901 69.2818 71.1641 69.7966 70.2301 70.1073C69.6048 70.3719 68.8088 70.6397 68.1514 70.6397C68.0191 70.6397 67.8938 70.6285 67.7756 70.6045C66.2142 70.2898 65.3823 68.9047 66.4446 65.8481C67.0198 64.1945 68.6741 61.6749 71.3419 59.5062C70.7326 58.2535 70.0542 56.9773 69.7094 55.8068C69.03 53.4958 68.8208 52.0995 68.8208 52.0995C68.8208 52.0995 66.6168 56.6588 63.7786 60.8098C63.6143 61.0503 63.4516 61.2839 63.2893 61.5184C63.8465 62.8112 64.2881 64.1832 64.3463 65.5662C64.4505 68.0737 63.3628 69.9686 61.5629 71.2935C60.5868 72.011 59.5482 72.5075 58.6542 72.8241C58.081 73.0727 56.9215 73.4792 55.2719 73.5914C55.0735 73.6055 54.8771 73.6149 54.6847 73.6149C54.0052 73.6149 53.3939 73.5179 53.0131 73.2313C52.3456 72.7302 52.2651 72.1042 52.6099 71.2543C52.9025 70.5328 55.0879 68.0348 56.9239 65.8481C57.429 65.2448 57.914 64.6303 58.345 64.059C58.339 64.045 58.3371 64.0356 58.3371 64.0356C58.3371 64.0356 58.6689 63.6068 59.2101 62.8572C58.5407 61.4161 57.6889 59.91 57.288 58.551C56.6085 56.24 56.4033 54.8398 56.4033 54.8398C56.4033 54.8398 54.1715 60.56 51.8465 65.1239C50.0466 68.6575 48.8448 70.7997 48.3037 71.7398C48.2997 71.7638 48.2958 71.775 48.2958 71.775C48.2958 71.775 48.2169 71.9129 48.0766 72.1273C48.0085 72.2436 47.9748 72.3035 47.9748 72.3035C47.9748 72.3035 47.9729 72.2958 47.9709 72.2878C47.3676 73.1778 46.0118 74.9224 44.6669 74.9224C40.9709 74.9224 42.3298 67.4218 42.3298 67.4218C42.3298 67.4218 41.2505 70.2002 40.0318 72.5853C39.0397 74.5296 38.1364 76.1752 36.1601 76.1752C35.5889 76.1752 34.6901 76.1566 33.9405 75.447C32.2428 73.8355 30.9456 69.7431 31.2002 66.5762C31.4166 63.8804 31.8309 62.0149 32.3981 60.4575C31.3819 61.0107 30.2122 61.6644 29.0197 62.364C28.4083 62.7227 27.7929 63.0877 27.1876 63.4444C27.2076 63.4805 27.2282 63.518 27.2463 63.554C28.7656 66.4884 29.1657 72.9121 25.8566 77.8467C23.1727 81.8494 18.6198 84.584 13.7913 84.584C12.6649 84.584 11.5239 84.4348 10.3894 84.1182C8.45323 83.579 5.52494 79.5747 8.04841 73.9946C10.2732 69.076 19.1681 64.4189 21.5112 63.2604C21.7076 63.1522 21.9266 63.0344 22.1571 62.9081C17.485 58.8212 5.81228 53.31 4.17674 44.8416C3.71574 42.4584 4.83269 36.7527 11.8379 30.2005C17.7287 24.6905 25.9258 20.4728 33.4942 17.7829C37.6612 16.3017 41.9018 15.5946 45.7982 15.5946ZM46.7847 25.1348C51.054 25.1348 52.795 26.3745 52.9974 26.6811C53.278 27.3025 53.2146 28.6896 52.1323 30.5998C49.8133 34.6886 43.7741 39.2296 35.5142 40.1557C34.9991 40.2138 34.4959 40.2418 34.0149 40.2418C30.9262 40.2418 29.6424 39.0637 29.6304 39.0517C28.9128 38.258 27.7627 36.9906 25.7743 36.9886C25.0327 36.9886 24.3106 37.1833 23.6252 37.5641C23.0419 37.8868 20.2148 39.7089 21.8283 43.906C22.7042 46.1829 25.4401 49.0728 29.5951 50.4358C30.7055 50.8005 32.0655 51.055 33.5608 51.1913C32.9554 51.7926 32.4185 52.3992 31.9635 52.9764C30.6707 53.6819 28.6562 54.7852 26.5416 55.9477L26.1423 56.163C24.8495 55.0245 23.4708 53.9677 22.1219 52.9294C17.7284 49.5501 14.8604 47.1248 15.0127 44.3288C15.3354 38.42 23.9273 32.9304 31.0788 29.3666C36.5547 26.6387 42.1327 25.1348 46.7847 25.1348ZM51.8857 47.5545C51.8516 47.6848 51.8219 47.8194 51.7878 47.9577C51.6735 48.4187 51.5448 48.9375 51.3885 49.3905C51.2562 49.7513 50.701 51.0348 49.9674 52.7024C49.8552 52.6382 49.7412 52.5784 49.6229 52.5223C49.4225 51.3558 49.0014 50.1567 48.2097 49.1165C48.6066 48.9762 49.0047 48.8265 49.4115 48.6702C50.2453 48.3475 51.0719 47.9754 51.8857 47.5545ZM42.6782 54.1274C41.9887 54.1274 40.8705 54.7284 39.8283 55.8929C38.9303 56.8991 37.4003 59.4906 36.6847 61.6593C35.2616 65.9687 35.8742 70.3477 36.8844 70.6123C36.9144 70.6203 36.9483 70.6241 36.9783 70.6241C38.1609 70.6241 40.0186 65.1009 40.9166 62.9081C41.4958 61.4971 43.7467 55.2372 43.2537 54.4014C43.1454 54.219 42.9448 54.1274 42.6782 54.1274ZM72.6181 61.2248C71.1229 62.5456 70.2624 63.9302 69.8856 64.752C68.9255 66.8445 68.8786 67.5148 69.1692 67.7232C70.5662 67.2222 72.8721 66.012 72.8921 62.775C72.8961 62.29 72.7925 61.768 72.6181 61.2248ZM24.3494 64.7911C24.2051 64.8753 24.0706 64.9576 23.9383 65.0377V65.0416C23.9383 65.0416 23.8764 65.0773 23.7622 65.1434C23.0727 65.5563 22.5028 65.8974 22.118 66.1299C20.4203 67.1902 17.8602 68.9145 15.8779 70.7846C12.6248 73.8532 11.9425 78.1131 13.6582 79.1073C14.025 79.3198 14.5084 79.4244 15.0636 79.4244C16.9076 79.4244 19.5628 78.2649 21.6012 76.0421C24.3833 73.0055 25.5319 69.1586 24.3494 64.7911ZM60.4668 65.2922C59.8895 66.0498 59.3578 66.7234 58.9009 67.2926C58.1152 68.2707 56.1175 70.4166 56.1175 70.4166C56.1175 70.4166 55.8347 70.685 55.957 70.7572C55.9971 70.7812 56.0476 70.7924 56.1057 70.7924C56.2961 70.7924 56.5763 70.6786 56.8769 70.5223C57.9853 69.8248 60.4686 68.0889 60.4746 65.5153C60.4746 65.4412 60.4728 65.3684 60.4668 65.2922Z" fill="#A1D979"/>
</g>
<defs>
<clipPath id="clip0">
<rect width="100" height="100" fill="white"/>
</clipPath>
</defs>
</svg>
