<svg width="512" height="512" viewBox="0 0 512 512" fill="none" xmlns="http://www.w3.org/2000/svg">
<g clip-path="url(#clip0)">
<path d="M439.277 72.7227C392.379 25.8242 330.039 0 263.711 0C263.707 0 263.691 0 263.688 0C230.883 0.00390625 198.914 6.35547 168.676 18.8828C138.434 31.4102 111.34 49.5234 88.1407 72.7227C41.2462 119.617 15.4219 181.969 15.4219 248.289C15.4219 287.84 24.9649 327.145 43.0469 362.164L1.31256 481.391C-1.62885 489.801 0.453184 498.941 6.75787 505.242C11.168 509.656 16.9727 512 22.9415 512C25.5001 512 28.086 511.57 30.6094 510.688L149.836 468.957C184.856 487.039 224.16 496.582 263.711 496.582C330.031 496.582 392.379 470.754 439.277 423.859C486.172 376.965 512 314.613 512 248.293C512 181.969 486.176 119.617 439.277 72.7227ZM418.043 402.625C376.82 443.852 322.008 466.551 263.711 466.551C228.047 466.551 192.617 457.73 161.25 441.035C155.563 438.012 148.84 437.492 142.805 439.605L34.4844 477.516L72.3985 369.195C74.5118 363.152 73.9883 356.43 70.9649 350.746C54.2735 319.387 45.4493 283.957 45.4493 248.289C45.4493 189.992 68.1524 135.18 109.375 93.957C150.594 52.7383 205.398 30.0352 263.691 30.0273H263.711C322.012 30.0273 376.82 52.7305 418.043 93.957C459.27 135.18 481.973 189.988 481.973 248.289C481.973 306.59 459.27 361.402 418.043 402.625Z" fill="white"/>
<path d="M355.984 270.469C344.563 259.047 325.977 259.047 314.555 270.469L302.063 282.961C271.043 266.059 245.942 240.957 229.035 209.938L241.527 197.445C252.953 186.023 252.953 167.438 241.527 156.016L207.863 122.352C196.442 110.93 177.856 110.93 166.434 122.352L139.504 149.281C124.078 164.707 123.309 191.227 137.336 223.957C149.516 252.375 171.805 283.609 200.098 311.902C228.391 340.195 259.625 362.484 288.043 374.664C303.594 381.328 317.738 384.652 329.961 384.652C343.465 384.652 354.621 380.594 362.719 372.496L389.649 345.562V345.566C395.184 340.031 398.231 332.676 398.231 324.852C398.231 317.023 395.184 309.668 389.649 304.137L355.984 270.469ZM341.484 351.262C337.082 355.664 323.543 357.207 299.875 347.066C274.883 336.355 246.988 316.324 221.332 290.668C195.676 265.012 175.649 237.121 164.938 212.129C154.793 188.461 156.336 174.918 160.738 170.516L187.152 144.102L219.777 176.73L204.141 192.371C197.07 199.441 195.363 210.164 199.899 219.055C220.457 259.367 252.633 291.543 292.945 312.102C301.84 316.637 312.563 314.934 319.633 307.859L335.27 292.223L367.899 324.852L341.484 351.262Z" fill="white"/>
</g>
<defs>
<clipPath id="clip0">
<rect width="512" height="512" fill="white"/>
</clipPath>
</defs>
</svg>
